<mxfile host="app.diagrams.net" modified="2024-05-15T14:27:27.848Z" agent="Mozilla/5.0 (Windows NT 10.0; Win64; x64; rv:126.0) Gecko/20100101 Firefox/126.0" etag="mjEzz5GxGIrxIPdm6rPt" version="24.4.0" type="device">
  <diagram name="Seite-1" id="Z8_sELzaDRQZi4PrPueD">
    <mxGraphModel dx="1434" dy="754" grid="1" gridSize="10" guides="1" tooltips="1" connect="1" arrows="1" fold="1" page="1" pageScale="1" pageWidth="1654" pageHeight="1169" math="0" shadow="0">
      <root>
        <mxCell id="0" />
        <mxCell id="1" parent="0" />
        <mxCell id="zM8UK8Uo4HwUSSuVesAz-1" value="Nutzer" style="shape=umlActor;verticalLabelPosition=bottom;verticalAlign=top;html=1;outlineConnect=0;" parent="1" vertex="1">
          <mxGeometry x="30" y="20" width="30" height="60" as="geometry" />
        </mxCell>
        <mxCell id="zM8UK8Uo4HwUSSuVesAz-4" value="MakeReservationController" style="shape=umlLifeline;perimeter=lifelinePerimeter;whiteSpace=wrap;html=1;container=1;dropTarget=0;collapsible=0;recursiveResize=0;outlineConnect=0;portConstraint=eastwest;newEdgeStyle={&quot;curved&quot;:0,&quot;rounded&quot;:0};" parent="1" vertex="1">
          <mxGeometry x="230" y="30" width="160" height="970" as="geometry" />
        </mxCell>
        <mxCell id="zM8UK8Uo4HwUSSuVesAz-9" value="" style="html=1;points=[[0,0,0,0,5],[0,1,0,0,-5],[1,0,0,0,5],[1,1,0,0,-5]];perimeter=orthogonalPerimeter;outlineConnect=0;targetShapes=umlLifeline;portConstraint=eastwest;newEdgeStyle={&quot;curved&quot;:0,&quot;rounded&quot;:0};" parent="zM8UK8Uo4HwUSSuVesAz-4" vertex="1">
          <mxGeometry x="75" y="110" width="10" height="120" as="geometry" />
        </mxCell>
        <mxCell id="zM8UK8Uo4HwUSSuVesAz-19" value="" style="html=1;points=[[0,0,0,0,5],[0,1,0,0,-5],[1,0,0,0,5],[1,1,0,0,-5]];perimeter=orthogonalPerimeter;outlineConnect=0;targetShapes=umlLifeline;portConstraint=eastwest;newEdgeStyle={&quot;curved&quot;:0,&quot;rounded&quot;:0};" parent="zM8UK8Uo4HwUSSuVesAz-4" vertex="1">
          <mxGeometry x="75" y="280" width="10" height="70" as="geometry" />
        </mxCell>
        <mxCell id="zM8UK8Uo4HwUSSuVesAz-26" style="edgeStyle=orthogonalEdgeStyle;rounded=0;orthogonalLoop=1;jettySize=auto;html=1;curved=0;exitX=1;exitY=0;exitDx=0;exitDy=5;exitPerimeter=0;" parent="zM8UK8Uo4HwUSSuVesAz-4" source="zM8UK8Uo4HwUSSuVesAz-19" target="zM8UK8Uo4HwUSSuVesAz-19" edge="1">
          <mxGeometry relative="1" as="geometry">
            <Array as="points">
              <mxPoint x="85" y="300" />
              <mxPoint x="160" y="300" />
              <mxPoint x="160" y="315" />
            </Array>
          </mxGeometry>
        </mxCell>
        <mxCell id="zM8UK8Uo4HwUSSuVesAz-27" value="6: new Reservation()" style="edgeLabel;html=1;align=center;verticalAlign=middle;resizable=0;points=[];" parent="zM8UK8Uo4HwUSSuVesAz-26" vertex="1" connectable="0">
          <mxGeometry x="0.1294" relative="1" as="geometry">
            <mxPoint as="offset" />
          </mxGeometry>
        </mxCell>
        <mxCell id="zM8UK8Uo4HwUSSuVesAz-33" value="" style="html=1;points=[[0,0,0,0,5],[0,1,0,0,-5],[1,0,0,0,5],[1,1,0,0,-5]];perimeter=orthogonalPerimeter;outlineConnect=0;targetShapes=umlLifeline;portConstraint=eastwest;newEdgeStyle={&quot;curved&quot;:0,&quot;rounded&quot;:0};" parent="zM8UK8Uo4HwUSSuVesAz-4" vertex="1">
          <mxGeometry x="75" y="390" width="10" height="190" as="geometry" />
        </mxCell>
        <mxCell id="zM8UK8Uo4HwUSSuVesAz-35" style="edgeStyle=orthogonalEdgeStyle;rounded=0;orthogonalLoop=1;jettySize=auto;html=1;curved=0;exitX=1;exitY=0;exitDx=0;exitDy=5;exitPerimeter=0;" parent="zM8UK8Uo4HwUSSuVesAz-4" edge="1">
          <mxGeometry relative="1" as="geometry">
            <mxPoint x="85" y="410" as="sourcePoint" />
            <mxPoint x="85" y="455" as="targetPoint" />
            <Array as="points">
              <mxPoint x="85" y="425" />
              <mxPoint x="160" y="425" />
              <mxPoint x="160" y="455" />
            </Array>
          </mxGeometry>
        </mxCell>
        <mxCell id="zM8UK8Uo4HwUSSuVesAz-36" value="10: new Ticket()" style="edgeLabel;html=1;align=center;verticalAlign=middle;resizable=0;points=[];" parent="zM8UK8Uo4HwUSSuVesAz-35" vertex="1" connectable="0">
          <mxGeometry x="0.1294" relative="1" as="geometry">
            <mxPoint as="offset" />
          </mxGeometry>
        </mxCell>
        <mxCell id="zM8UK8Uo4HwUSSuVesAz-56" value="" style="html=1;points=[[0,0,0,0,5],[0,1,0,0,-5],[1,0,0,0,5],[1,1,0,0,-5]];perimeter=orthogonalPerimeter;outlineConnect=0;targetShapes=umlLifeline;portConstraint=eastwest;newEdgeStyle={&quot;curved&quot;:0,&quot;rounded&quot;:0};" parent="zM8UK8Uo4HwUSSuVesAz-4" vertex="1">
          <mxGeometry x="75" y="630" width="10" height="120" as="geometry" />
        </mxCell>
        <mxCell id="zM8UK8Uo4HwUSSuVesAz-6" style="edgeStyle=orthogonalEdgeStyle;rounded=0;orthogonalLoop=1;jettySize=auto;html=1;curved=0;exitX=1;exitY=0;exitDx=0;exitDy=5;exitPerimeter=0;" parent="1" source="zM8UK8Uo4HwUSSuVesAz-5" target="zM8UK8Uo4HwUSSuVesAz-9" edge="1">
          <mxGeometry relative="1" as="geometry">
            <Array as="points">
              <mxPoint x="270" y="145" />
              <mxPoint x="270" y="150" />
            </Array>
            <mxPoint x="300" y="150" as="targetPoint" />
          </mxGeometry>
        </mxCell>
        <mxCell id="zM8UK8Uo4HwUSSuVesAz-7" value="1: startReservation()" style="edgeLabel;html=1;align=center;verticalAlign=middle;resizable=0;points=[];" parent="zM8UK8Uo4HwUSSuVesAz-6" vertex="1" connectable="0">
          <mxGeometry x="-0.0777" y="-1" relative="1" as="geometry">
            <mxPoint as="offset" />
          </mxGeometry>
        </mxCell>
        <mxCell id="zM8UK8Uo4HwUSSuVesAz-5" value="" style="html=1;points=[[0,0,0,0,5],[0,1,0,0,-5],[1,0,0,0,5],[1,1,0,0,-5]];perimeter=orthogonalPerimeter;outlineConnect=0;targetShapes=umlLifeline;portConstraint=eastwest;newEdgeStyle={&quot;curved&quot;:0,&quot;rounded&quot;:0};" parent="1" vertex="1">
          <mxGeometry x="40" y="140" width="10" height="860" as="geometry" />
        </mxCell>
        <mxCell id="zM8UK8Uo4HwUSSuVesAz-8" value="CinemaShowRepository" style="shape=umlLifeline;perimeter=lifelinePerimeter;whiteSpace=wrap;html=1;container=1;dropTarget=0;collapsible=0;recursiveResize=0;outlineConnect=0;portConstraint=eastwest;newEdgeStyle={&quot;curved&quot;:0,&quot;rounded&quot;:0};" parent="1" vertex="1">
          <mxGeometry x="460" y="30" width="150" height="970" as="geometry" />
        </mxCell>
        <mxCell id="zM8UK8Uo4HwUSSuVesAz-12" value="" style="html=1;points=[[0,0,0,0,5],[0,1,0,0,-5],[1,0,0,0,5],[1,1,0,0,-5]];perimeter=orthogonalPerimeter;outlineConnect=0;targetShapes=umlLifeline;portConstraint=eastwest;newEdgeStyle={&quot;curved&quot;:0,&quot;rounded&quot;:0};" parent="zM8UK8Uo4HwUSSuVesAz-8" vertex="1">
          <mxGeometry x="70" y="140" width="10" height="100" as="geometry" />
        </mxCell>
        <mxCell id="zM8UK8Uo4HwUSSuVesAz-13" style="edgeStyle=orthogonalEdgeStyle;rounded=0;orthogonalLoop=1;jettySize=auto;html=1;curved=0;exitX=1;exitY=0;exitDx=0;exitDy=5;exitPerimeter=0;" parent="zM8UK8Uo4HwUSSuVesAz-8" source="zM8UK8Uo4HwUSSuVesAz-12" target="zM8UK8Uo4HwUSSuVesAz-12" edge="1">
          <mxGeometry relative="1" as="geometry">
            <Array as="points">
              <mxPoint x="170" y="155" />
              <mxPoint x="170" y="195" />
            </Array>
          </mxGeometry>
        </mxCell>
        <mxCell id="zM8UK8Uo4HwUSSuVesAz-14" value="3:findCinemaShowsInPeriodOfTime()" style="edgeLabel;html=1;align=center;verticalAlign=middle;resizable=0;points=[];" parent="zM8UK8Uo4HwUSSuVesAz-13" vertex="1" connectable="0">
          <mxGeometry x="0.0333" y="-1" relative="1" as="geometry">
            <mxPoint as="offset" />
          </mxGeometry>
        </mxCell>
        <mxCell id="zM8UK8Uo4HwUSSuVesAz-10" style="edgeStyle=orthogonalEdgeStyle;rounded=0;orthogonalLoop=1;jettySize=auto;html=1;curved=0;entryX=0;entryY=0.1;entryDx=0;entryDy=0;entryPerimeter=0;" parent="1" source="zM8UK8Uo4HwUSSuVesAz-9" target="zM8UK8Uo4HwUSSuVesAz-12" edge="1">
          <mxGeometry relative="1" as="geometry">
            <mxPoint x="250" y="160" as="sourcePoint" />
            <mxPoint x="520" y="180" as="targetPoint" />
            <Array as="points">
              <mxPoint x="318" y="170" />
              <mxPoint x="318" y="180" />
            </Array>
          </mxGeometry>
        </mxCell>
        <mxCell id="zM8UK8Uo4HwUSSuVesAz-11" value="2: findCinemaShowsInWeek()" style="edgeLabel;html=1;align=center;verticalAlign=middle;resizable=0;points=[];" parent="zM8UK8Uo4HwUSSuVesAz-10" vertex="1" connectable="0">
          <mxGeometry x="-0.0777" y="-1" relative="1" as="geometry">
            <mxPoint as="offset" />
          </mxGeometry>
        </mxCell>
        <mxCell id="zM8UK8Uo4HwUSSuVesAz-15" style="edgeStyle=orthogonalEdgeStyle;rounded=0;orthogonalLoop=1;jettySize=auto;html=1;curved=0;dashed=1;endArrow=open;endFill=0;exitX=0;exitY=1;exitDx=0;exitDy=-5;exitPerimeter=0;" parent="1" source="zM8UK8Uo4HwUSSuVesAz-12" target="zM8UK8Uo4HwUSSuVesAz-9" edge="1">
          <mxGeometry relative="1" as="geometry">
            <mxPoint x="450" y="230.24" as="sourcePoint" />
            <mxPoint x="320" y="250" as="targetPoint" />
            <Array as="points">
              <mxPoint x="530" y="234" />
            </Array>
          </mxGeometry>
        </mxCell>
        <mxCell id="zM8UK8Uo4HwUSSuVesAz-17" style="edgeStyle=orthogonalEdgeStyle;rounded=0;orthogonalLoop=1;jettySize=auto;html=1;curved=0;dashed=1;endArrow=open;endFill=0;exitX=0;exitY=1;exitDx=0;exitDy=-5;exitPerimeter=0;" parent="1" source="zM8UK8Uo4HwUSSuVesAz-9" target="zM8UK8Uo4HwUSSuVesAz-5" edge="1">
          <mxGeometry relative="1" as="geometry">
            <mxPoint x="246" y="240.24" as="sourcePoint" />
            <mxPoint x="60" y="260" as="targetPoint" />
            <Array as="points">
              <mxPoint x="178" y="255" />
              <mxPoint x="178" y="270" />
            </Array>
          </mxGeometry>
        </mxCell>
        <mxCell id="zM8UK8Uo4HwUSSuVesAz-18" value="4: make-reservation-cinema-show-selection.html" style="edgeLabel;html=1;align=center;verticalAlign=middle;resizable=0;points=[];" parent="zM8UK8Uo4HwUSSuVesAz-17" vertex="1" connectable="0">
          <mxGeometry x="-0.0558" y="1" relative="1" as="geometry">
            <mxPoint as="offset" />
          </mxGeometry>
        </mxCell>
        <mxCell id="zM8UK8Uo4HwUSSuVesAz-20" style="edgeStyle=orthogonalEdgeStyle;rounded=0;orthogonalLoop=1;jettySize=auto;html=1;curved=0;entryX=0;entryY=0;entryDx=0;entryDy=5;entryPerimeter=0;" parent="1" source="zM8UK8Uo4HwUSSuVesAz-5" target="zM8UK8Uo4HwUSSuVesAz-19" edge="1">
          <mxGeometry relative="1" as="geometry">
            <mxPoint x="60" y="300" as="sourcePoint" />
            <mxPoint x="310" y="330" as="targetPoint" />
            <Array as="points">
              <mxPoint x="183" y="300" />
              <mxPoint x="183" y="315" />
            </Array>
          </mxGeometry>
        </mxCell>
        <mxCell id="zM8UK8Uo4HwUSSuVesAz-21" value="5: onShowSelected()" style="edgeLabel;html=1;align=center;verticalAlign=middle;resizable=0;points=[];" parent="zM8UK8Uo4HwUSSuVesAz-20" vertex="1" connectable="0">
          <mxGeometry x="-0.0777" y="-1" relative="1" as="geometry">
            <mxPoint as="offset" />
          </mxGeometry>
        </mxCell>
        <mxCell id="zM8UK8Uo4HwUSSuVesAz-29" style="edgeStyle=orthogonalEdgeStyle;rounded=0;orthogonalLoop=1;jettySize=auto;html=1;curved=0;entryX=1.2;entryY=0.269;entryDx=0;entryDy=0;entryPerimeter=0;dashed=1;endArrow=open;endFill=0;exitX=0;exitY=1;exitDx=0;exitDy=-5;exitPerimeter=0;" parent="1" edge="1">
          <mxGeometry relative="1" as="geometry">
            <mxPoint x="305" y="374" as="sourcePoint" />
            <mxPoint x="52" y="380" as="targetPoint" />
            <Array as="points">
              <mxPoint x="179" y="374" />
              <mxPoint x="179" y="380" />
            </Array>
          </mxGeometry>
        </mxCell>
        <mxCell id="zM8UK8Uo4HwUSSuVesAz-30" value="8: make-reservation-ticket-adder.html" style="edgeLabel;html=1;align=center;verticalAlign=middle;resizable=0;points=[];" parent="zM8UK8Uo4HwUSSuVesAz-29" vertex="1" connectable="0">
          <mxGeometry x="-0.0558" y="1" relative="1" as="geometry">
            <mxPoint as="offset" />
          </mxGeometry>
        </mxCell>
        <mxCell id="zM8UK8Uo4HwUSSuVesAz-31" style="edgeStyle=orthogonalEdgeStyle;rounded=0;orthogonalLoop=1;jettySize=auto;html=1;curved=0;" parent="1" target="zM8UK8Uo4HwUSSuVesAz-33" edge="1">
          <mxGeometry relative="1" as="geometry">
            <mxPoint x="50" y="414" as="sourcePoint" />
            <mxPoint x="300" y="430" as="targetPoint" />
            <Array as="points">
              <mxPoint x="183" y="414" />
              <mxPoint x="183" y="429" />
            </Array>
          </mxGeometry>
        </mxCell>
        <mxCell id="zM8UK8Uo4HwUSSuVesAz-32" value="9: addTicketToReservation()" style="edgeLabel;html=1;align=center;verticalAlign=middle;resizable=0;points=[];" parent="zM8UK8Uo4HwUSSuVesAz-31" vertex="1" connectable="0">
          <mxGeometry x="-0.0777" y="-1" relative="1" as="geometry">
            <mxPoint as="offset" />
          </mxGeometry>
        </mxCell>
        <mxCell id="zM8UK8Uo4HwUSSuVesAz-37" value="TicketRepository" style="shape=umlLifeline;perimeter=lifelinePerimeter;whiteSpace=wrap;html=1;container=1;dropTarget=0;collapsible=0;recursiveResize=0;outlineConnect=0;portConstraint=eastwest;newEdgeStyle={&quot;curved&quot;:0,&quot;rounded&quot;:0};" parent="1" vertex="1">
          <mxGeometry x="700" y="30" width="100" height="970" as="geometry" />
        </mxCell>
        <mxCell id="zM8UK8Uo4HwUSSuVesAz-41" value="" style="html=1;points=[[0,0,0,0,5],[0,1,0,0,-5],[1,0,0,0,5],[1,1,0,0,-5]];perimeter=orthogonalPerimeter;outlineConnect=0;targetShapes=umlLifeline;portConstraint=eastwest;newEdgeStyle={&quot;curved&quot;:0,&quot;rounded&quot;:0};" parent="zM8UK8Uo4HwUSSuVesAz-37" vertex="1">
          <mxGeometry x="45" y="630" width="10" height="40" as="geometry" />
        </mxCell>
        <mxCell id="zM8UK8Uo4HwUSSuVesAz-38" value="" style="endArrow=classicThin;endFill=1;endSize=12;html=1;rounded=0;exitX=0.5;exitY=0.818;exitDx=0;exitDy=0;exitPerimeter=0;edgeStyle=orthogonalEdgeStyle;" parent="1" target="zM8UK8Uo4HwUSSuVesAz-41" edge="1">
          <mxGeometry width="160" relative="1" as="geometry">
            <mxPoint x="315.5" y="670" as="sourcePoint" />
            <mxPoint x="730" y="673" as="targetPoint" />
            <Array as="points">
              <mxPoint x="316" y="673" />
            </Array>
          </mxGeometry>
        </mxCell>
        <mxCell id="oqleqTB6zmUiIJiH609G-3" value="16: save()" style="edgeLabel;html=1;align=center;verticalAlign=middle;resizable=0;points=[];" vertex="1" connectable="0" parent="zM8UK8Uo4HwUSSuVesAz-38">
          <mxGeometry x="-0.0011" relative="1" as="geometry">
            <mxPoint as="offset" />
          </mxGeometry>
        </mxCell>
        <mxCell id="zM8UK8Uo4HwUSSuVesAz-40" style="edgeStyle=orthogonalEdgeStyle;rounded=0;orthogonalLoop=1;jettySize=auto;html=1;curved=0;dashed=1;endArrow=open;endFill=0;startArrow=none;startFill=0;" parent="1" source="zM8UK8Uo4HwUSSuVesAz-41" target="zM8UK8Uo4HwUSSuVesAz-56" edge="1">
          <mxGeometry relative="1" as="geometry">
            <mxPoint x="775" y="690" as="sourcePoint" />
            <mxPoint x="330" y="690" as="targetPoint" />
            <Array as="points">
              <mxPoint x="430" y="690" />
              <mxPoint x="430" y="690" />
            </Array>
          </mxGeometry>
        </mxCell>
        <mxCell id="zM8UK8Uo4HwUSSuVesAz-42" value="CinemaShow" style="shape=umlLifeline;perimeter=lifelinePerimeter;whiteSpace=wrap;html=1;container=1;dropTarget=0;collapsible=0;recursiveResize=0;outlineConnect=0;portConstraint=eastwest;newEdgeStyle={&quot;curved&quot;:0,&quot;rounded&quot;:0};" parent="1" vertex="1">
          <mxGeometry x="860" y="30" width="100" height="970" as="geometry" />
        </mxCell>
        <mxCell id="zM8UK8Uo4HwUSSuVesAz-47" value="" style="html=1;points=[[0,0,0,0,5],[0,1,0,0,-5],[1,0,0,0,5],[1,1,0,0,-5]];perimeter=orthogonalPerimeter;outlineConnect=0;targetShapes=umlLifeline;portConstraint=eastwest;newEdgeStyle={&quot;curved&quot;:0,&quot;rounded&quot;:0};" parent="zM8UK8Uo4HwUSSuVesAz-42" vertex="1">
          <mxGeometry x="45" y="445" width="10" height="80" as="geometry" />
        </mxCell>
        <mxCell id="oqleqTB6zmUiIJiH609G-13" value="" style="html=1;points=[[0,0,0,0,5],[0,1,0,0,-5],[1,0,0,0,5],[1,1,0,0,-5]];perimeter=orthogonalPerimeter;outlineConnect=0;targetShapes=umlLifeline;portConstraint=eastwest;newEdgeStyle={&quot;curved&quot;:0,&quot;rounded&quot;:0};" vertex="1" parent="zM8UK8Uo4HwUSSuVesAz-42">
          <mxGeometry x="426" y="535" width="10" height="40" as="geometry" />
        </mxCell>
        <mxCell id="oqleqTB6zmUiIJiH609G-14" style="edgeStyle=orthogonalEdgeStyle;rounded=0;orthogonalLoop=1;jettySize=auto;html=1;curved=0;dashed=1;endArrow=open;endFill=0;" edge="1" source="oqleqTB6zmUiIJiH609G-13" parent="zM8UK8Uo4HwUSSuVesAz-42">
          <mxGeometry relative="1" as="geometry">
            <mxPoint x="183" y="626" as="sourcePoint" />
            <mxPoint x="-544" y="555" as="targetPoint" />
            <Array as="points">
              <mxPoint x="-159" y="555" />
              <mxPoint x="-159" y="555" />
            </Array>
          </mxGeometry>
        </mxCell>
        <mxCell id="oqleqTB6zmUiIJiH609G-15" style="edgeStyle=orthogonalEdgeStyle;rounded=0;orthogonalLoop=1;jettySize=auto;html=1;curved=0;exitX=0.525;exitY=0.336;exitDx=0;exitDy=0;exitPerimeter=0;entryX=0;entryY=0;entryDx=0;entryDy=5;entryPerimeter=0;" edge="1" target="oqleqTB6zmUiIJiH609G-13" parent="zM8UK8Uo4HwUSSuVesAz-42">
          <mxGeometry relative="1" as="geometry">
            <Array as="points">
              <mxPoint x="426" y="541" />
            </Array>
            <mxPoint x="-545" y="540" as="sourcePoint" />
            <mxPoint x="141" y="535" as="targetPoint" />
          </mxGeometry>
        </mxCell>
        <mxCell id="oqleqTB6zmUiIJiH609G-16" value="13: setAttribute()" style="edgeLabel;html=1;align=center;verticalAlign=middle;resizable=0;points=[];" vertex="1" connectable="0" parent="oqleqTB6zmUiIJiH609G-15">
          <mxGeometry x="0.1294" relative="1" as="geometry">
            <mxPoint x="-2" y="-5" as="offset" />
          </mxGeometry>
        </mxCell>
        <mxCell id="zM8UK8Uo4HwUSSuVesAz-43" value="CinemaShowRepository" style="shape=umlLifeline;perimeter=lifelinePerimeter;whiteSpace=wrap;html=1;container=1;dropTarget=0;collapsible=0;recursiveResize=0;outlineConnect=0;portConstraint=eastwest;newEdgeStyle={&quot;curved&quot;:0,&quot;rounded&quot;:0};" parent="1" vertex="1">
          <mxGeometry x="1030" y="30" width="110" height="970" as="geometry" />
        </mxCell>
        <mxCell id="zM8UK8Uo4HwUSSuVesAz-51" value="" style="html=1;points=[[0,0,0,0,5],[0,1,0,0,-5],[1,0,0,0,5],[1,1,0,0,-5]];perimeter=orthogonalPerimeter;outlineConnect=0;targetShapes=umlLifeline;portConstraint=eastwest;newEdgeStyle={&quot;curved&quot;:0,&quot;rounded&quot;:0};" parent="zM8UK8Uo4HwUSSuVesAz-43" vertex="1">
          <mxGeometry x="50" y="480" width="10" height="45" as="geometry" />
        </mxCell>
        <mxCell id="zM8UK8Uo4HwUSSuVesAz-61" value="" style="html=1;points=[[0,0,0,0,5],[0,1,0,0,-5],[1,0,0,0,5],[1,1,0,0,-5]];perimeter=orthogonalPerimeter;outlineConnect=0;targetShapes=umlLifeline;portConstraint=eastwest;newEdgeStyle={&quot;curved&quot;:0,&quot;rounded&quot;:0};" parent="zM8UK8Uo4HwUSSuVesAz-43" vertex="1">
          <mxGeometry x="430" y="680" width="10" height="40" as="geometry" />
        </mxCell>
        <mxCell id="zM8UK8Uo4HwUSSuVesAz-62" style="edgeStyle=orthogonalEdgeStyle;rounded=0;orthogonalLoop=1;jettySize=auto;html=1;curved=0;dashed=1;endArrow=open;endFill=0;startArrow=none;startFill=0;" parent="zM8UK8Uo4HwUSSuVesAz-43" source="zM8UK8Uo4HwUSSuVesAz-61" edge="1">
          <mxGeometry relative="1" as="geometry">
            <mxPoint x="420" y="700" as="sourcePoint" />
            <mxPoint x="-715" y="700" as="targetPoint" />
            <Array as="points">
              <mxPoint x="120" y="700" />
              <mxPoint x="120" y="700" />
            </Array>
          </mxGeometry>
        </mxCell>
        <mxCell id="zM8UK8Uo4HwUSSuVesAz-63" value="" style="endArrow=classicThin;endFill=1;endSize=12;html=1;rounded=0;entryX=0;entryY=0;entryDx=0;entryDy=5;entryPerimeter=0;edgeStyle=orthogonalEdgeStyle;" parent="zM8UK8Uo4HwUSSuVesAz-43" edge="1" target="zM8UK8Uo4HwUSSuVesAz-61">
          <mxGeometry width="160" relative="1" as="geometry">
            <mxPoint x="-715" y="690" as="sourcePoint" />
            <mxPoint x="390" y="690" as="targetPoint" />
            <Array as="points">
              <mxPoint x="-715" y="685" />
            </Array>
          </mxGeometry>
        </mxCell>
        <mxCell id="zM8UK8Uo4HwUSSuVesAz-64" value="17: save()" style="edgeLabel;html=1;align=center;verticalAlign=middle;resizable=0;points=[];" parent="zM8UK8Uo4HwUSSuVesAz-63" vertex="1" connectable="0">
          <mxGeometry x="-0.0735" y="-1" relative="1" as="geometry">
            <mxPoint as="offset" />
          </mxGeometry>
        </mxCell>
        <mxCell id="zM8UK8Uo4HwUSSuVesAz-44" value="" style="endArrow=classicThin;endFill=1;endSize=12;html=1;rounded=0;exitX=0.5;exitY=0.818;exitDx=0;exitDy=0;exitPerimeter=0;" parent="1" target="zM8UK8Uo4HwUSSuVesAz-47" edge="1">
          <mxGeometry width="160" relative="1" as="geometry">
            <mxPoint x="315" y="500" as="sourcePoint" />
            <mxPoint x="940" y="500" as="targetPoint" />
          </mxGeometry>
        </mxCell>
        <mxCell id="zM8UK8Uo4HwUSSuVesAz-45" value="11: updateSeatStatus()" style="edgeLabel;html=1;align=center;verticalAlign=middle;resizable=0;points=[];" parent="zM8UK8Uo4HwUSSuVesAz-44" vertex="1" connectable="0">
          <mxGeometry x="-0.0735" y="-1" relative="1" as="geometry">
            <mxPoint x="12" as="offset" />
          </mxGeometry>
        </mxCell>
        <mxCell id="zM8UK8Uo4HwUSSuVesAz-46" style="edgeStyle=orthogonalEdgeStyle;rounded=0;orthogonalLoop=1;jettySize=auto;html=1;curved=0;dashed=1;endArrow=open;endFill=0;exitX=0;exitY=1;exitDx=0;exitDy=-5;exitPerimeter=0;" parent="1" edge="1" target="zM8UK8Uo4HwUSSuVesAz-33" source="zM8UK8Uo4HwUSSuVesAz-47">
          <mxGeometry relative="1" as="geometry">
            <mxPoint x="850" y="570" as="sourcePoint" />
            <mxPoint x="330" y="550" as="targetPoint" />
            <Array as="points">
              <mxPoint x="905" y="551" />
            </Array>
          </mxGeometry>
        </mxCell>
        <mxCell id="zM8UK8Uo4HwUSSuVesAz-49" value="" style="endArrow=classicThin;endFill=1;endSize=12;html=1;rounded=0;" parent="1" target="zM8UK8Uo4HwUSSuVesAz-51" edge="1" source="zM8UK8Uo4HwUSSuVesAz-47">
          <mxGeometry width="160" relative="1" as="geometry">
            <mxPoint x="970" y="520" as="sourcePoint" />
            <mxPoint x="1160" y="520" as="targetPoint" />
          </mxGeometry>
        </mxCell>
        <mxCell id="zM8UK8Uo4HwUSSuVesAz-50" value="12: save()" style="edgeLabel;html=1;align=center;verticalAlign=middle;resizable=0;points=[];" parent="zM8UK8Uo4HwUSSuVesAz-49" vertex="1" connectable="0">
          <mxGeometry x="-0.0735" y="-1" relative="1" as="geometry">
            <mxPoint as="offset" />
          </mxGeometry>
        </mxCell>
        <mxCell id="zM8UK8Uo4HwUSSuVesAz-53" style="edgeStyle=orthogonalEdgeStyle;rounded=0;orthogonalLoop=1;jettySize=auto;html=1;curved=0;dashed=1;endArrow=open;endFill=0;exitX=0;exitY=1;exitDx=0;exitDy=-5;exitPerimeter=0;" parent="1" source="zM8UK8Uo4HwUSSuVesAz-51" target="zM8UK8Uo4HwUSSuVesAz-47" edge="1">
          <mxGeometry relative="1" as="geometry">
            <mxPoint x="1535" y="620" as="sourcePoint" />
            <mxPoint x="1050" y="680" as="targetPoint" />
            <Array as="points">
              <mxPoint x="1080" y="540" />
            </Array>
          </mxGeometry>
        </mxCell>
        <mxCell id="zM8UK8Uo4HwUSSuVesAz-54" style="edgeStyle=orthogonalEdgeStyle;rounded=0;orthogonalLoop=1;jettySize=auto;html=1;curved=0;entryX=1.2;entryY=0.269;entryDx=0;entryDy=0;entryPerimeter=0;dashed=1;endArrow=open;endFill=0;exitX=0;exitY=1;exitDx=0;exitDy=-5;exitPerimeter=0;" parent="1" edge="1">
          <mxGeometry relative="1" as="geometry">
            <mxPoint x="303" y="590" as="sourcePoint" />
            <mxPoint x="50" y="596" as="targetPoint" />
            <Array as="points">
              <mxPoint x="177" y="590" />
              <mxPoint x="177" y="596" />
            </Array>
          </mxGeometry>
        </mxCell>
        <mxCell id="zM8UK8Uo4HwUSSuVesAz-55" value="14: make-reservation-ticket-adder.html" style="edgeLabel;html=1;align=center;verticalAlign=middle;resizable=0;points=[];" parent="zM8UK8Uo4HwUSSuVesAz-54" vertex="1" connectable="0">
          <mxGeometry x="-0.0558" y="1" relative="1" as="geometry">
            <mxPoint as="offset" />
          </mxGeometry>
        </mxCell>
        <mxCell id="zM8UK8Uo4HwUSSuVesAz-57" style="edgeStyle=orthogonalEdgeStyle;rounded=0;orthogonalLoop=1;jettySize=auto;html=1;curved=0;" parent="1" edge="1">
          <mxGeometry relative="1" as="geometry">
            <mxPoint x="50" y="650" as="sourcePoint" />
            <mxPoint x="305" y="665" as="targetPoint" />
            <Array as="points">
              <mxPoint x="183" y="650" />
              <mxPoint x="183" y="665" />
            </Array>
          </mxGeometry>
        </mxCell>
        <mxCell id="zM8UK8Uo4HwUSSuVesAz-58" value="15: commitReservation()" style="edgeLabel;html=1;align=center;verticalAlign=middle;resizable=0;points=[];" parent="zM8UK8Uo4HwUSSuVesAz-57" vertex="1" connectable="0">
          <mxGeometry x="-0.0777" y="-1" relative="1" as="geometry">
            <mxPoint as="offset" />
          </mxGeometry>
        </mxCell>
        <mxCell id="zM8UK8Uo4HwUSSuVesAz-59" value="ReservationRepository" style="shape=umlLifeline;perimeter=lifelinePerimeter;whiteSpace=wrap;html=1;container=1;dropTarget=0;collapsible=0;recursiveResize=0;outlineConnect=0;portConstraint=eastwest;newEdgeStyle={&quot;curved&quot;:0,&quot;rounded&quot;:0};" parent="1" vertex="1">
          <mxGeometry x="1390" y="30" width="150" height="970" as="geometry" />
        </mxCell>
        <mxCell id="zM8UK8Uo4HwUSSuVesAz-65" style="edgeStyle=orthogonalEdgeStyle;rounded=0;orthogonalLoop=1;jettySize=auto;html=1;curved=0;entryX=1.2;entryY=0.269;entryDx=0;entryDy=0;entryPerimeter=0;dashed=1;endArrow=open;endFill=0;exitX=0;exitY=1;exitDx=0;exitDy=-5;exitPerimeter=0;" parent="1" edge="1">
          <mxGeometry relative="1" as="geometry">
            <mxPoint x="303" y="780" as="sourcePoint" />
            <mxPoint x="50" y="786" as="targetPoint" />
            <Array as="points">
              <mxPoint x="177" y="780" />
              <mxPoint x="177" y="786" />
            </Array>
          </mxGeometry>
        </mxCell>
        <mxCell id="zM8UK8Uo4HwUSSuVesAz-66" value="19: reservation-list.html" style="edgeLabel;html=1;align=center;verticalAlign=middle;resizable=0;points=[];" parent="zM8UK8Uo4HwUSSuVesAz-65" vertex="1" connectable="0">
          <mxGeometry x="-0.0558" y="1" relative="1" as="geometry">
            <mxPoint as="offset" />
          </mxGeometry>
        </mxCell>
        <mxCell id="oqleqTB6zmUiIJiH609G-8" value="HttpSession" style="shape=umlLifeline;perimeter=lifelinePerimeter;whiteSpace=wrap;html=1;container=1;dropTarget=0;collapsible=0;recursiveResize=0;outlineConnect=0;portConstraint=eastwest;newEdgeStyle={&quot;curved&quot;:0,&quot;rounded&quot;:0};" vertex="1" parent="1">
          <mxGeometry x="1240" y="30" width="100" height="970" as="geometry" />
        </mxCell>
        <mxCell id="oqleqTB6zmUiIJiH609G-11" value="" style="html=1;points=[[0,0,0,0,5],[0,1,0,0,-5],[1,0,0,0,5],[1,1,0,0,-5]];perimeter=orthogonalPerimeter;outlineConnect=0;targetShapes=umlLifeline;portConstraint=eastwest;newEdgeStyle={&quot;curved&quot;:0,&quot;rounded&quot;:0};" vertex="1" parent="oqleqTB6zmUiIJiH609G-8">
          <mxGeometry x="45" y="320" width="10" height="40" as="geometry" />
        </mxCell>
        <mxCell id="oqleqTB6zmUiIJiH609G-17" value="" style="html=1;points=[[0,0,0,0,5],[0,1,0,0,-5],[1,0,0,0,5],[1,1,0,0,-5]];perimeter=orthogonalPerimeter;outlineConnect=0;targetShapes=umlLifeline;portConstraint=eastwest;newEdgeStyle={&quot;curved&quot;:0,&quot;rounded&quot;:0};" vertex="1" parent="oqleqTB6zmUiIJiH609G-8">
          <mxGeometry x="46" y="720" width="10" height="40" as="geometry" />
        </mxCell>
        <mxCell id="oqleqTB6zmUiIJiH609G-9" style="edgeStyle=orthogonalEdgeStyle;rounded=0;orthogonalLoop=1;jettySize=auto;html=1;curved=0;exitX=0.525;exitY=0.336;exitDx=0;exitDy=0;exitPerimeter=0;entryX=0;entryY=0;entryDx=0;entryDy=5;entryPerimeter=0;" edge="1" parent="1" source="zM8UK8Uo4HwUSSuVesAz-4" target="oqleqTB6zmUiIJiH609G-11">
          <mxGeometry relative="1" as="geometry">
            <Array as="points">
              <mxPoint x="1285" y="356" />
            </Array>
            <mxPoint x="390" y="380" as="sourcePoint" />
            <mxPoint x="1000" y="350" as="targetPoint" />
          </mxGeometry>
        </mxCell>
        <mxCell id="oqleqTB6zmUiIJiH609G-10" value="7: setAttribute()" style="edgeLabel;html=1;align=center;verticalAlign=middle;resizable=0;points=[];" vertex="1" connectable="0" parent="oqleqTB6zmUiIJiH609G-9">
          <mxGeometry x="0.1294" relative="1" as="geometry">
            <mxPoint x="-2" y="-5" as="offset" />
          </mxGeometry>
        </mxCell>
        <mxCell id="oqleqTB6zmUiIJiH609G-12" style="edgeStyle=orthogonalEdgeStyle;rounded=0;orthogonalLoop=1;jettySize=auto;html=1;curved=0;dashed=1;endArrow=open;endFill=0;" edge="1" parent="1" source="oqleqTB6zmUiIJiH609G-11" target="zM8UK8Uo4HwUSSuVesAz-19">
          <mxGeometry relative="1" as="geometry">
            <mxPoint x="1042" y="441" as="sourcePoint" />
            <mxPoint x="827" y="410" as="targetPoint" />
            <Array as="points">
              <mxPoint x="700" y="370" />
              <mxPoint x="700" y="370" />
            </Array>
          </mxGeometry>
        </mxCell>
        <mxCell id="oqleqTB6zmUiIJiH609G-19" style="edgeStyle=orthogonalEdgeStyle;rounded=0;orthogonalLoop=1;jettySize=auto;html=1;curved=0;entryX=0;entryY=0;entryDx=0;entryDy=5;entryPerimeter=0;" edge="1" target="oqleqTB6zmUiIJiH609G-17" parent="1" source="zM8UK8Uo4HwUSSuVesAz-56">
          <mxGeometry relative="1" as="geometry">
            <Array as="points">
              <mxPoint x="890" y="755" />
              <mxPoint x="890" y="755" />
            </Array>
            <mxPoint x="350" y="760" as="sourcePoint" />
            <mxPoint x="1006" y="750" as="targetPoint" />
          </mxGeometry>
        </mxCell>
        <mxCell id="oqleqTB6zmUiIJiH609G-20" value="18: setAttribute()" style="edgeLabel;html=1;align=center;verticalAlign=middle;resizable=0;points=[];" vertex="1" connectable="0" parent="oqleqTB6zmUiIJiH609G-19">
          <mxGeometry x="0.1294" relative="1" as="geometry">
            <mxPoint x="-2" y="-5" as="offset" />
          </mxGeometry>
        </mxCell>
        <mxCell id="oqleqTB6zmUiIJiH609G-18" style="edgeStyle=orthogonalEdgeStyle;rounded=0;orthogonalLoop=1;jettySize=auto;html=1;curved=0;dashed=1;endArrow=open;endFill=0;" edge="1" source="oqleqTB6zmUiIJiH609G-17" parent="1" target="zM8UK8Uo4HwUSSuVesAz-56">
          <mxGeometry relative="1" as="geometry">
            <mxPoint x="1048" y="841" as="sourcePoint" />
            <mxPoint x="321" y="770" as="targetPoint" />
            <Array as="points">
              <mxPoint x="540" y="770" />
              <mxPoint x="540" y="770" />
            </Array>
          </mxGeometry>
        </mxCell>
      </root>
    </mxGraphModel>
  </diagram>
</mxfile>
